REM DIRINDEX 1\2,1\3,1\4
REM DIRNAME cjc151,folder01,folder02,folder03
TITLE ""
FILE "100 100_TOEFL_3900.mp3" MP3
  TRACK 01 AUDIO
    TITLE "2:cjc151_4355"
    INDEX 01 00:00:00
  TRACK 02 AUDIO
    TITLE "0:"
    INDEX 01 00:01:26
  TRACK 03 AUDIO
    TITLE "3:cjc151_4356"
    INDEX 01 00:03:06
  TRACK 04 AUDIO
    TITLE "0:"
    INDEX 01 00:07:00
  TRACK 05 AUDIO
    TITLE "2:cjc151_4357"
    INDEX 01 00:08:54
  TRACK 06 AUDIO
    TITLE "0:"
    INDEX 01 00:09:59
  TRACK 07 AUDIO
    TITLE "3:cjc151_4358"
    INDEX 01 00:11:42
  TRACK 08 AUDIO
    TITLE "0:"
    INDEX 01 00:15:64
  TRACK 09 AUDIO
    TITLE "2:cjc151_4359"
    INDEX 01 00:17:43
  TRACK 10 AUDIO
    TITLE "0:"
    INDEX 01 00:18:42
  TRACK 11 AUDIO
    TITLE "3:cjc151_4360"
    INDEX 01 00:20:22
  TRACK 12 AUDIO
    TITLE "0:"
    INDEX 01 00:24:59
  TRACK 13 AUDIO
    TITLE "2:cjc151_4361"
    INDEX 01 00:26:38
  TRACK 14 AUDIO
    TITLE "0:"
    INDEX 01 00:27:61
  TRACK 15 AUDIO
    TITLE "3:cjc151_4362"
    INDEX 01 00:29:40
  TRACK 16 AUDIO
    TITLE "0:"
    INDEX 01 00:33:21
  TRACK 17 AUDIO
    TITLE "2:cjc151_4363"
    INDEX 01 00:35:04
  TRACK 18 AUDIO
    TITLE "0:"
    INDEX 01 00:36:05
  TRACK 19 AUDIO
    TITLE "3:cjc151_4364"
    INDEX 01 00:37:61
  TRACK 20 AUDIO
    TITLE "0:"
    INDEX 01 00:41:00
  TRACK 21 AUDIO
    TITLE "2:cjc151_4365"
    INDEX 01 00:42:57
  TRACK 22 AUDIO
    TITLE "0:"
    INDEX 01 00:43:52
  TRACK 23 AUDIO
    TITLE "3:cjc151_4366"
    INDEX 01 00:45:32
  TRACK 24 AUDIO
    TITLE "0:"
    INDEX 01 00:48:53
  TRACK 25 AUDIO
    TITLE "2:cjc151_4367"
    INDEX 01 00:50:35
  TRACK 26 AUDIO
    TITLE "0:"
    INDEX 01 00:51:52
  TRACK 27 AUDIO
    TITLE "3:cjc151_4368"
    INDEX 01 00:53:33
  TRACK 28 AUDIO
    TITLE "0:"
    INDEX 01 00:57:13
  TRACK 29 AUDIO
    TITLE "2:cjc151_4369"
    INDEX 01 00:58:66
  TRACK 30 AUDIO
    TITLE "0:"
    INDEX 01 00:59:71
  TRACK 31 AUDIO
    TITLE "3:cjc151_4370"
    INDEX 01 01:01:56
  TRACK 32 AUDIO
    TITLE "0:"
    INDEX 01 01:05:40
  TRACK 33 AUDIO
    TITLE "2:cjc151_4371"
    INDEX 01 01:07:27
  TRACK 34 AUDIO
    TITLE "0:"
    INDEX 01 01:08:31
  TRACK 35 AUDIO
    TITLE "3:cjc151_4372"
    INDEX 01 01:10:18
  TRACK 36 AUDIO
    TITLE "0:"
    INDEX 01 01:13:47
  TRACK 37 AUDIO
    TITLE "2:cjc151_4373"
    INDEX 01 01:15:39
  TRACK 38 AUDIO
    TITLE "0:"
    INDEX 01 01:16:46
  TRACK 39 AUDIO
    TITLE "3:cjc151_4374"
    INDEX 01 01:18:25
  TRACK 40 AUDIO
    TITLE "0:"
    INDEX 01 01:21:35
  TRACK 41 AUDIO
    TITLE "2:cjc151_4375"
    INDEX 01 01:23:18
  TRACK 42 AUDIO
    TITLE "0:"
    INDEX 01 01:24:36
  TRACK 43 AUDIO
    TITLE "3:cjc151_4376"
    INDEX 01 01:26:15
  TRACK 44 AUDIO
    TITLE "0:"
    INDEX 01 01:30:52
  TRACK 45 AUDIO
    TITLE "2:cjc151_4377"
    INDEX 01 01:32:37
  TRACK 46 AUDIO
    TITLE "0:"
    INDEX 01 01:33:29
  TRACK 47 AUDIO
    TITLE "3:cjc151_4378"
    INDEX 01 01:35:16
  TRACK 48 AUDIO
    TITLE "0:"
    INDEX 01 01:39:02
  TRACK 49 AUDIO
    TITLE "2:cjc151_4379"
    INDEX 01 01:40:56
  TRACK 50 AUDIO
    TITLE "0:"
    INDEX 01 01:41:69
  TRACK 51 AUDIO
    TITLE "3:cjc151_4380"
    INDEX 01 01:43:51
  TRACK 52 AUDIO
    TITLE "0:"
    INDEX 01 01:47:23
  TRACK 53 AUDIO
    TITLE "2:cjc151_4381"
    INDEX 01 01:49:00
  TRACK 54 AUDIO
    TITLE "0:"
    INDEX 01 01:50:17
  TRACK 55 AUDIO
    TITLE "3:cjc151_4382"
    INDEX 01 01:51:74
  TRACK 56 AUDIO
    TITLE "0:"
    INDEX 01 01:55:28
  TRACK 57 AUDIO
    TITLE "2:cjc151_4383"
    INDEX 01 01:57:08
  TRACK 58 AUDIO
    TITLE "0:"
    INDEX 01 01:58:19
  TRACK 59 AUDIO
    TITLE "3:cjc151_4384"
    INDEX 01 02:00:00
  TRACK 60 AUDIO
    TITLE "0:"
    INDEX 01 02:03:18
  TRACK 61 AUDIO
    TITLE "2:cjc151_4385"
    INDEX 01 02:04:74
  TRACK 62 AUDIO
    TITLE "0:"
    INDEX 01 02:07:31
  TRACK 63 AUDIO
    TITLE "3:cjc151_4386"
    INDEX 01 02:09:22
  TRACK 64 AUDIO
    TITLE "0:"
    INDEX 01 02:15:02
  TRACK 65 AUDIO
    TITLE "2:cjc151_4387"
    INDEX 01 02:16:56
  TRACK 66 AUDIO
    TITLE "0:"
    INDEX 01 02:17:59
  TRACK 67 AUDIO
    TITLE "3:cjc151_4388"
    INDEX 01 02:19:48
  TRACK 68 AUDIO
    TITLE "0:"
    INDEX 01 02:22:58
  TRACK 69 AUDIO
    TITLE "2:cjc151_4389"
    INDEX 01 02:24:38
  TRACK 70 AUDIO
    TITLE "0:"
    INDEX 01 02:25:49
  TRACK 71 AUDIO
    TITLE "3:cjc151_4390"
    INDEX 01 02:27:28
  TRACK 72 AUDIO
    TITLE "0:"
    INDEX 01 02:32:08
  TRACK 73 AUDIO
    TITLE "2:cjc151_4391"
    INDEX 01 02:33:62
  TRACK 74 AUDIO
    TITLE "0:"
    INDEX 01 02:34:66
  TRACK 75 AUDIO
    TITLE "3:cjc151_4392"
    INDEX 01 02:36:43
  TRACK 76 AUDIO
    TITLE "0:"
    INDEX 01 02:39:63
  TRACK 77 AUDIO
    TITLE "2:cjc151_4393"
    INDEX 01 02:41:42
  TRACK 78 AUDIO
    TITLE "0:"
    INDEX 01 02:42:45
  TRACK 79 AUDIO
    TITLE "3:cjc151_4394"
    INDEX 01 02:44:29
  TRACK 80 AUDIO
    TITLE "0:"
    INDEX 01 02:47:64
  TRACK 81 AUDIO
    TITLE "2:cjc151_4395"
    INDEX 01 02:49:44
  TRACK 82 AUDIO
    TITLE "0:"
    INDEX 01 02:51:03
  TRACK 83 AUDIO
    TITLE "3:cjc151_4396"
    INDEX 01 02:52:65
  TRACK 84 AUDIO
    TITLE "0:"
    INDEX 01 02:57:08
  TRACK 85 AUDIO
    TITLE "2:cjc151_4397"
    INDEX 01 02:58:56
  TRACK 86 AUDIO
    TITLE "0:"
    INDEX 01 02:59:56
  TRACK 87 AUDIO
    TITLE "3:cjc151_4398"
    INDEX 01 03:01:43
  TRACK 88 AUDIO
    TITLE "0:"
    INDEX 01 03:05:15
